<svg width="100" height="100" viewBox="0 0 100 100" fill="none" xmlns="http://www.w3.org/2000/svg">
<g clip-path="url(#clip0)">
<path d="M89.2254 28.8304H57.8451C54.7908 28.8304 51.2645 27.0984 50.2986 25.1239L48.9842 22.4367C47.2187 18.8274 41.4621 16 35.8789 16H10.7748C4.83359 16 0 19.2937 0 23.3424V49.0036C0 50.1061 1.31172 51 2.92969 51C4.54766 51 5.85938 50.1061 5.85938 49.0036C5.85938 47.1566 8.06445 45.6539 10.7748 45.6539H89.2254C91.9357 45.6539 94.1406 47.1566 94.1406 49.0036C94.1406 50.1061 95.4523 51 97.0703 51C98.6883 51 100 50.1061 100 49.0036V36.173C100 32.1242 95.1664 28.8304 89.2254 28.8304V28.8304Z" fill="#FFB31A"/>
<path d="M89.2254 29.2377H57.8451C54.7908 29.2377 51.2645 27.5375 50.2986 25.5993L50 25V45.7521H89.2254C91.9357 45.7521 94.1406 47.2272 94.1406 49.0402C94.1406 50.1225 95.4523 51 97.0703 51C98.6883 51 100 50.1225 100 49.0402V36.4454C100 32.471 95.1664 29.2377 89.2254 29.2377Z" fill="#FFB31A"/>
<path d="M89.2254 37.6562H10.7748C4.83359 37.6562 0 42.4898 0 48.4311V89.2252C0 95.1664 4.83359 100 10.7748 100H89.2254C95.1664 100 100 95.1664 100 89.2252V48.4311C100 42.4898 95.1664 37.6562 89.2254 37.6562V37.6562Z" fill="#FFD400"/>
<path d="M53.161 74.4876C52.9688 74.1538 52.554 74.0172 52.2 74.1689C51.5273 74.4623 50.7838 74.619 50.005 74.619C49.2311 74.619 48.4928 74.4572 47.8201 74.1689C47.4661 74.0172 47.0513 74.1487 46.8592 74.4876L41.498 83.8291C41.2806 84.2033 41.4222 84.6838 41.8065 84.8811C43.1064 85.5487 46.1207 86.8485 49.9595 86.8687C49.9595 86.8687 49.9949 86.8687 50.005 86.8687C50.0202 86.8687 50.0505 86.8687 50.0505 86.8687C53.8589 86.8485 56.8935 85.5487 58.2034 84.8811C58.5878 84.6838 58.7345 84.2033 58.517 83.8291L53.161 74.4876Z" fill="#3A3113"/>
<path d="M44.4972 68.4689C44.6793 66.9213 45.4936 65.5456 46.672 64.6504C46.9805 64.4178 47.0665 63.9929 46.8693 63.6642L41.4373 54.3682C41.2199 53.9939 40.7293 53.8776 40.3702 54.1153C39.1412 54.9144 36.5061 56.897 34.5943 60.1946C34.5792 60.2199 34.5792 60.2199 34.5741 60.23C34.569 60.2401 34.5539 60.2654 34.5539 60.2654C32.6674 63.5984 32.288 66.8758 32.2223 68.3375C32.2021 68.7724 32.546 69.1315 32.9809 69.1315H43.7537C44.128 69.1365 44.4517 68.8483 44.4972 68.4689Z" fill="#3A3113"/>
<path d="M65.451 60.2654C65.451 60.2654 65.4359 60.2401 65.4308 60.23C65.4257 60.2199 65.4257 60.2199 65.4106 60.1946C63.4988 56.897 60.8637 54.9144 59.6347 54.1153C59.2706 53.8776 58.785 53.9939 58.5676 54.3682L53.1306 63.6642C52.9384 63.998 53.0243 64.4178 53.3278 64.6504C54.5063 65.5456 55.3205 66.9213 55.5026 68.4689C55.5481 68.8483 55.8718 69.1366 56.2562 69.1366H67.029C67.464 69.1366 67.8079 68.7774 67.7877 68.3425C67.7169 66.8808 67.3426 63.6035 65.451 60.2654Z" fill="#3A3113"/>
<path d="M46.2927 69.1113C46.3028 70.4667 47.0413 71.6452 48.1337 72.2824C48.6799 72.6011 49.3223 72.7882 49.9999 72.7882C50.6827 72.7882 51.325 72.6011 51.8764 72.2824C52.9638 71.6451 53.6971 70.4667 53.7123 69.1113C53.7123 69.1012 53.7123 69.091 53.7123 69.0809C53.7123 67.7052 52.9638 66.5066 51.8561 65.8693C51.3099 65.5557 50.6777 65.3736 50.005 65.3736C49.3323 65.3736 48.7001 65.5557 48.1539 65.8693C47.0463 66.5116 46.2977 67.7102 46.2977 69.0809C46.2927 69.091 46.2927 69.1012 46.2927 69.1113Z" fill="#3A3113"/>
<path d="M67.6765 51.3235C65.3854 49.0273 62.7099 47.2268 59.7309 45.9674C56.6458 44.6626 53.3735 44 50 44C46.6265 44 43.3542 44.6626 40.2691 45.9674C37.2901 47.2268 34.6197 49.0273 32.3235 51.3235C30.0273 53.6197 28.2268 56.2901 26.9674 59.2691C25.6626 62.3492 25 65.6265 25 69C25 72.3735 25.6626 75.6458 26.9674 78.7309C28.2268 81.7099 30.0273 84.3803 32.3235 86.6765C34.6197 88.9727 37.2901 90.7732 40.2691 92.0326C43.3542 93.3374 46.6265 94 50 94C53.3735 94 56.6458 93.3374 59.7309 92.0326C62.7098 90.7733 65.3854 88.9727 67.6765 86.6766C69.9727 84.3804 71.7732 81.7099 73.0326 78.731C74.3374 75.6458 74.9999 72.3735 74.9999 69.0001C74.9999 65.6266 74.3374 62.3492 73.0376 59.2691C71.7783 56.2901 69.9727 53.6197 67.6765 51.3235ZM68.6122 76.8596C67.5956 79.262 66.139 81.4216 64.2828 83.2777C62.4266 85.1339 60.267 86.5905 57.8647 87.6071C55.3763 88.6591 52.7311 89.1952 50.0051 89.1952C47.279 89.1952 44.6338 88.6591 42.1455 87.6072C39.7431 86.5905 37.5835 85.134 35.7273 83.2778C33.8711 81.4216 32.4145 79.262 31.3979 76.8597C30.3459 74.3713 29.8098 71.7261 29.8098 69.0001C29.8098 66.274 30.3459 63.6288 31.3979 61.1405C32.4145 58.7381 33.8711 56.5784 35.7273 54.7223C37.5835 52.8661 39.7431 51.4095 42.1455 50.3929C44.6338 49.3409 47.279 48.8048 50.0051 48.8048C52.7311 48.8048 55.3763 49.3409 57.8647 50.3929C60.267 51.4095 62.4267 52.8661 64.2828 54.7222C66.139 56.5784 67.5956 58.738 68.6122 61.1404C69.6642 63.6288 70.2003 66.2739 70.2003 69C70.2003 71.7261 69.6642 74.3712 68.6122 76.8596Z" fill="#3A3113"/>
</g>
<defs>
<clipPath id="clip0">
<rect width="100" height="100" fill="white"/>
</clipPath>
</defs>
</svg>
