<svg width="267" height="233" viewBox="0 0 267 233" fill="none" xmlns="http://www.w3.org/2000/svg">
<path d="M192.838 52.2456H145.768C141.186 52.2456 135.897 49.6476 134.448 46.6859L132.476 42.655C129.828 37.2411 121.193 33 112.818 33H75.1622C66.2504 33 59 37.9406 59 44.0136V82.5053C59 84.1592 60.9676 85.5 63.3945 85.5C65.8215 85.5 67.7891 84.1592 67.7891 82.5053C67.7891 79.7349 71.0967 77.4809 75.1622 77.4809H192.838C196.904 77.4809 200.211 79.7349 200.211 82.5053C200.211 84.1592 202.179 85.5 204.605 85.5C207.032 85.5 209 84.1592 209 82.5053V63.2596C209 57.1864 201.75 52.2456 192.838 52.2456V52.2456Z" fill="#FFB31A"/>
<path d="M192.838 52.3565H145.768C141.186 52.3565 135.897 49.8063 134.448 46.8989L134 46V77.1282H192.838C196.904 77.1282 200.211 79.3408 200.211 82.0603C200.211 83.6838 202.179 85 204.605 85C207.032 85 209 83.6838 209 82.0603V63.1682C209 57.2065 201.75 52.3565 192.838 52.3565Z" fill="#FFB31A"/>
<path d="M192.838 59.4844H75.1622C66.2504 59.4844 59 66.7348 59 75.6466V136.838C59 145.75 66.2504 153 75.1622 153H192.838C201.75 153 209 145.75 209 136.838V75.6466C209 66.7348 201.75 59.4844 192.838 59.4844V59.4844Z" fill="#FFD400"/>
<path d="M138.931 115.17C138.631 114.643 137.984 114.427 137.432 114.667C136.383 115.13 135.223 115.378 134.008 115.378C132.801 115.378 131.649 115.122 130.599 114.667C130.047 114.427 129.4 114.635 129.1 115.17L120.737 129.93C120.398 130.521 120.619 131.28 121.218 131.592C123.246 132.647 127.948 134.701 133.937 134.733C133.937 134.733 133.992 134.733 134.008 134.733C134.032 134.733 134.079 134.733 134.079 134.733C140.02 134.701 144.754 132.647 146.797 131.592C147.397 131.28 147.626 130.521 147.287 129.93L138.931 115.17Z" fill="#100E06"/>
<path d="M125.416 105.661C125.7 103.216 126.97 101.042 128.808 99.6276C129.29 99.26 129.424 98.5888 129.116 98.0694L120.642 83.3817C120.303 82.7904 119.538 82.6066 118.977 82.9822C117.06 84.2448 112.949 87.3773 109.967 92.5875C109.943 92.6274 109.943 92.6274 109.936 92.6434C109.928 92.6594 109.904 92.6994 109.904 92.6994C106.961 97.9655 106.369 103.144 106.267 105.453C106.235 106.14 106.772 106.708 107.45 106.708H124.256C124.84 106.716 125.345 106.26 125.416 105.661Z" fill="#100E06"/>
<path d="M158.104 92.6994C158.104 92.6994 158.08 92.6594 158.072 92.6434C158.064 92.6274 158.064 92.6274 158.04 92.5875C155.058 87.3773 150.947 84.2448 149.03 82.9822C148.462 82.6066 147.705 82.7904 147.365 83.3817L138.884 98.0694C138.584 98.5968 138.718 99.2601 139.191 99.6276C141.03 101.042 142.3 103.216 142.584 105.661C142.655 106.26 143.16 106.716 143.76 106.716H160.565C161.244 106.716 161.78 106.148 161.749 105.461C161.638 103.152 161.054 97.9735 158.104 92.6994Z" fill="#100E06"/>
<path d="M128.217 106.676C128.233 108.817 129.385 110.679 131.089 111.686C131.941 112.19 132.943 112.485 134 112.485C135.065 112.485 136.067 112.19 136.927 111.686C138.624 110.679 139.768 108.817 139.791 106.676C139.791 106.66 139.791 106.644 139.791 106.628C139.791 104.454 138.624 102.56 136.896 101.553C136.044 101.058 135.057 100.77 134.008 100.77C132.959 100.77 131.972 101.058 131.12 101.553C129.392 102.568 128.225 104.462 128.225 106.628C128.217 106.644 128.217 106.66 128.217 106.676Z" fill="#100E06"/>
<path d="M161.575 78.5711C158.001 74.9432 153.827 72.0983 149.18 70.1085C144.367 68.0468 139.263 67 134 67C128.737 67 123.633 68.0468 118.82 70.1085C114.173 72.0983 110.007 74.9432 106.425 78.5711C102.843 82.1991 100.034 86.4184 98.0692 91.1251C96.0336 95.9917 95 101.17 95 106.5C95 111.83 96.0336 117 98.0692 121.875C100.034 126.582 102.843 130.801 106.425 134.429C110.007 138.057 114.173 140.902 118.82 142.891C123.633 144.953 128.737 146 134 146C139.263 146 144.367 144.953 149.18 142.892C153.827 140.902 158.001 138.057 161.575 134.429C165.157 130.801 167.966 126.582 169.931 121.875C171.966 117 173 111.83 173 106.5C173 101.17 171.966 95.9918 169.939 91.1252C167.974 86.4184 165.157 82.1991 161.575 78.5711ZM163.035 118.918C161.449 122.714 159.177 126.126 156.281 129.059C153.386 131.992 150.017 134.293 146.269 135.899C142.387 137.561 138.261 138.408 134.008 138.408C129.755 138.408 125.629 137.561 121.747 135.899C117.999 134.293 114.63 131.992 111.735 129.059C108.839 126.126 106.567 122.714 104.981 118.918C103.34 114.987 102.503 110.807 102.503 106.5C102.503 102.193 103.34 98.0135 104.981 94.0819C106.567 90.2861 108.839 86.8739 111.735 83.9412C114.63 81.0085 117.999 78.707 121.747 77.1008C125.629 75.4386 129.755 74.5915 134.008 74.5915C138.261 74.5915 142.387 75.4386 146.269 77.1007C150.017 78.707 153.386 81.0084 156.281 83.9411C159.177 86.8739 161.449 90.2861 163.035 94.0818C164.676 98.0135 165.512 102.193 165.512 106.5C165.512 110.807 164.676 114.987 163.035 118.918Z" fill="#100E06"/>
<path d="M26.895 188.27C26.175 187.46 25.215 186.92 24.045 186.59C26.595 185.75 27.885 184.25 27.885 182.06V181.73C27.885 178.16 24.885 176.36 18.885 176.36H2.175V197H8.655V189.68H17.115C18.705 189.68 19.815 189.98 20.475 190.55C21.135 191.12 21.465 192.05 21.465 193.31V197H27.975V191.33C27.975 190.07 27.615 189.05 26.895 188.27ZM21.105 183.08C21.105 183.68 20.895 184.19 20.475 184.55C20.055 184.91 19.395 185.12 18.495 185.12H8.655V181.04H18.495C19.395 181.04 20.055 181.25 20.475 181.61C20.895 181.97 21.105 182.45 21.105 183.05V183.08ZM53.5289 192.95C52.9889 192.95 52.7189 192.68 52.7189 192.17V186.2C52.7189 185.66 52.6589 185.18 52.5989 184.79C52.5089 184.4 52.2989 183.98 51.9089 183.47C51.5489 182.99 51.0389 182.6 50.3789 182.27C49.7189 181.97 48.7889 181.7 47.5289 181.49C46.2989 181.28 44.7989 181.19 43.0589 181.19H31.7789V184.79L42.3989 184.76C43.5689 184.76 44.4989 184.85 45.1289 185C45.7589 185.12 46.1489 185.27 46.2689 185.42C46.3889 185.6 46.4489 185.78 46.4489 186.05C46.4489 186.5 46.1189 186.77 45.4889 186.86L38.3189 187.52C35.9789 187.73 34.2989 188.21 33.2789 188.93C32.2589 189.68 31.7789 190.76 31.7789 192.17V192.38C31.7789 193.85 32.3489 195.05 33.5489 196.01C34.7489 196.97 36.5789 197.45 39.0389 197.45H39.3989C41.4089 197.45 42.9989 197.21 44.1689 196.7C45.3389 196.19 46.1489 195.62 46.6289 195.05C46.8689 196.46 47.6789 197.18 49.1189 197.18H54.3689V192.95H53.5289ZM46.4489 190.25C46.4489 191.24 45.9389 192.08 44.8589 192.83C43.8089 193.58 42.4289 193.97 40.7789 193.97C39.7589 193.97 39.0389 193.79 38.5889 193.46C38.1389 193.1 37.9289 192.68 37.9289 192.2V192.17C37.9289 191.75 38.1089 191.45 38.4389 191.24C38.7989 191.03 39.3989 190.85 40.2689 190.73L46.4489 189.77V190.25ZM76.8902 175.82V183.65C74.9102 182.06 72.1502 181.25 68.6102 181.25H68.1302C64.6502 181.25 62.1002 181.94 60.4502 183.35C58.8302 184.76 58.0202 186.56 58.0202 188.78V189.32C58.0202 191.6 58.8602 193.49 60.6002 194.93C62.3102 196.4 64.9202 197.12 68.4002 197.12H68.7902C70.0202 197.12 71.1602 197 72.2102 196.79C73.2602 196.58 74.0702 196.31 74.7302 195.98C75.3602 195.68 75.8402 195.38 76.2002 195.14C76.5302 194.87 76.8002 194.66 76.9502 194.45V196.76H83.7602V175.82H76.8902ZM76.8902 189.11V189.2C76.8902 190.25 76.3502 191.18 75.2402 191.96C74.1302 192.74 72.6302 193.13 70.7102 193.13H70.5602C68.7002 193.13 67.2902 192.74 66.3902 191.96C65.4602 191.18 65.0102 190.25 65.0102 189.2V189.11C65.0102 187.97 65.4302 187.04 66.2402 186.32C67.0802 185.57 68.4902 185.21 70.5002 185.21H70.6502C72.5702 185.21 74.0702 185.6 75.2102 186.38C76.3202 187.13 76.8902 188.06 76.8902 189.11ZM95.1584 176H88.3484V180.32H95.1584V176ZM95.1584 181.79H88.3484V196.94H95.1584V181.79ZM113.131 197.09C120.991 197.09 124.921 194.48 124.921 189.26V188.75C124.921 183.65 120.991 181.1 113.131 181.1H110.941C109.111 181.1 107.461 181.25 106.051 181.58C104.641 181.88 103.501 182.27 102.631 182.78C101.761 183.29 101.071 183.86 100.531 184.58C99.9907 185.27 99.6307 185.93 99.4207 186.62C99.2107 187.31 99.1207 188 99.1207 188.75V189.26C99.1207 190.01 99.2107 190.73 99.4207 191.42C99.6307 192.11 99.9907 192.8 100.561 193.52C101.101 194.21 101.791 194.84 102.661 195.35C103.531 195.86 104.671 196.25 106.081 196.58C107.491 196.91 109.141 197.09 110.971 197.09H113.131ZM112.051 193.01C109.921 193.01 108.391 192.62 107.491 191.84C106.561 191.09 106.111 190.16 106.111 189.11V188.96C106.111 187.85 106.561 186.92 107.461 186.2C108.361 185.48 109.891 185.12 112.051 185.12H112.081C114.181 185.12 115.711 185.48 116.611 186.23C117.541 186.95 117.991 187.88 117.991 188.96V189.11C117.991 190.16 117.541 191.09 116.611 191.84C115.711 192.62 114.181 193.01 112.051 193.01ZM150.056 192.95C149.516 192.95 149.246 192.68 149.246 192.17V186.2C149.246 185.66 149.186 185.18 149.126 184.79C149.036 184.4 148.826 183.98 148.436 183.47C148.076 182.99 147.566 182.6 146.906 182.27C146.246 181.97 145.316 181.7 144.056 181.49C142.826 181.28 141.326 181.19 139.586 181.19H128.306V184.79L138.926 184.76C140.096 184.76 141.026 184.85 141.656 185C142.286 185.12 142.676 185.27 142.796 185.42C142.916 185.6 142.976 185.78 142.976 186.05C142.976 186.5 142.646 186.77 142.016 186.86L134.846 187.52C132.506 187.73 130.826 188.21 129.806 188.93C128.786 189.68 128.306 190.76 128.306 192.17V192.38C128.306 193.85 128.876 195.05 130.076 196.01C131.276 196.97 133.106 197.45 135.566 197.45H135.926C137.936 197.45 139.526 197.21 140.696 196.7C141.866 196.19 142.676 195.62 143.156 195.05C143.396 196.46 144.206 197.18 145.646 197.18H150.896V192.95H150.056ZM142.976 190.25C142.976 191.24 142.466 192.08 141.386 192.83C140.336 193.58 138.956 193.97 137.306 193.97C136.286 193.97 135.566 193.79 135.116 193.46C134.666 193.1 134.456 192.68 134.456 192.2V192.17C134.456 191.75 134.636 191.45 134.966 191.24C135.326 191.03 135.926 190.85 136.796 190.73L142.976 189.77V190.25ZM166.038 197.12H167.718C169.728 197.12 171.468 196.94 172.968 196.58C174.468 196.25 175.608 195.83 176.388 195.35C177.168 194.87 177.798 194.3 178.278 193.64C178.728 192.98 179.028 192.38 179.148 191.9C179.268 191.39 179.328 190.88 179.328 190.37V190.31H172.308C171.828 192.17 169.998 193.1 166.848 193.1H166.758C164.958 193.1 163.608 192.71 162.768 191.93C161.958 191.15 161.538 190.19 161.538 189.05V188.84C161.538 187.76 161.928 186.86 162.768 186.17C163.608 185.45 164.928 185.09 166.758 185.09H166.848C170.028 185.09 171.858 186.02 172.308 187.82H179.328V187.76C179.328 187.25 179.268 186.77 179.148 186.26C178.998 185.78 178.698 185.21 178.218 184.55C177.708 183.92 177.078 183.35 176.298 182.87C175.518 182.39 174.378 181.97 172.908 181.64C171.438 181.31 169.698 181.13 167.748 181.13H166.008C164.208 181.13 162.618 181.31 161.208 181.61C159.828 181.94 158.718 182.33 157.878 182.84C157.068 183.35 156.378 183.92 155.868 184.61C155.358 185.33 154.998 185.99 154.818 186.65C154.638 187.34 154.548 188.03 154.548 188.75V189.32C154.548 190.04 154.638 190.76 154.818 191.42C154.998 192.11 155.358 192.8 155.868 193.52C156.408 194.24 157.098 194.84 157.908 195.35C158.718 195.86 159.828 196.28 161.238 196.61C162.648 196.94 164.238 197.12 166.038 197.12ZM191.199 196.85H197.109V192.71H195.249C194.679 192.71 194.319 192.59 194.139 192.38C193.959 192.17 193.869 191.84 193.869 191.39V185.9H197.109V181.73H193.869V177.32H187.119V181.73H183.909V185.9H187.119V192.56C187.119 195.44 188.469 196.85 191.199 196.85ZM208.508 176H201.698V180.32H208.508V176ZM208.508 181.79H201.698V196.94H208.508V181.79ZM220.27 196.94H228.49L236.53 181.82H229.66L224.53 192.17L219.22 181.82H211.87L220.27 196.94ZM264.983 191.42V191.39H258.233C258.233 191.51 258.173 191.63 258.083 191.75C258.023 191.87 257.843 192.02 257.633 192.23C257.393 192.41 257.093 192.59 256.703 192.74C256.343 192.92 255.833 193.04 255.173 193.16C254.513 193.28 253.733 193.34 252.893 193.34H252.863C249.413 193.34 247.463 192.35 247.013 190.37H265.073V189.35C265.073 183.89 261.263 181.19 253.613 181.19H251.753C249.593 181.19 247.763 181.4 246.203 181.82C244.673 182.24 243.473 182.81 242.663 183.56C241.823 184.31 241.223 185.09 240.863 185.96C240.503 186.83 240.323 187.76 240.323 188.81V189.41C240.323 190.46 240.503 191.45 240.893 192.32C241.313 193.19 241.943 194 242.783 194.75C243.653 195.5 244.853 196.1 246.413 196.52C247.973 196.94 249.803 197.15 251.933 197.15H253.673C255.563 197.15 257.213 197.03 258.623 196.76C260.063 196.49 261.143 196.13 261.923 195.74C262.703 195.32 263.333 194.87 263.843 194.3C264.323 193.76 264.623 193.28 264.773 192.8C264.923 192.35 264.983 191.9 264.983 191.42ZM252.653 184.7C255.863 184.7 257.693 185.54 258.173 187.25H247.133C247.703 185.54 249.533 184.7 252.623 184.7H252.653ZM87.4525 227.36H88.7125C90.9025 227.36 92.7325 227.24 94.2325 226.97C95.7325 226.7 96.8425 226.31 97.5925 225.8C98.3425 225.29 98.8525 224.75 99.1525 224.18C99.4525 223.61 99.6025 222.92 99.6025 222.17V221.99C99.6025 220.91 99.3625 220.04 98.9125 219.41C98.4625 218.78 97.5325 218.27 96.1525 217.88C94.8025 217.49 92.8825 217.28 90.3925 217.25L87.4525 217.19C86.1325 217.16 85.2325 217.04 84.7225 216.83C84.2425 216.65 84.0025 216.35 84.0025 215.96V215.93C84.0025 215.51 84.2725 215.21 84.7825 215.06C85.3225 214.88 86.3725 214.79 87.9325 214.79H87.9625C88.8025 214.79 89.5225 214.85 90.1225 214.94C90.6925 215.06 91.1125 215.18 91.3525 215.36C91.5925 215.54 91.7725 215.72 91.8325 215.84C91.9225 215.99 91.9825 216.14 92.0125 216.35H99.0025V216.14C99.0025 212.96 95.5525 211.4 88.6525 211.4H87.4225C85.6825 211.4 84.1525 211.49 82.8625 211.67C81.5725 211.85 80.5525 212.09 79.8325 212.36C79.0825 212.66 78.5125 213.02 78.0625 213.44C77.6125 213.86 77.3425 214.31 77.1925 214.7C77.0725 215.12 77.0125 215.6 77.0125 216.11V216.29C77.0125 216.89 77.1325 217.43 77.4025 217.94C77.6725 218.45 78.1225 218.93 78.7225 219.41C79.3525 219.86 80.2825 220.25 81.4825 220.52C82.7125 220.82 84.1825 220.97 85.8925 221L88.8325 221.06C90.3325 221.09 91.2925 221.21 91.7725 221.42C92.2225 221.63 92.4625 221.96 92.4625 222.38V222.44C92.4625 222.74 92.3725 222.95 92.2225 223.16C92.0425 223.34 91.6225 223.49 90.9625 223.64C90.3025 223.79 89.3725 223.88 88.2025 223.88H88.1425C85.3225 223.88 83.9125 223.19 83.9125 221.81H76.8625V221.99C76.8625 225.59 80.3725 227.36 87.4525 227.36ZM110.776 226.85H116.686V222.71H114.826C114.256 222.71 113.896 222.59 113.716 222.38C113.536 222.17 113.446 221.84 113.446 221.39V215.9H116.686V211.73H113.446V207.32H106.696V211.73H103.486V215.9H106.696V222.56C106.696 225.44 108.046 226.85 110.776 226.85ZM142.395 222.95C141.855 222.95 141.585 222.68 141.585 222.17V216.2C141.585 215.66 141.525 215.18 141.465 214.79C141.375 214.4 141.165 213.98 140.775 213.47C140.415 212.99 139.905 212.6 139.245 212.27C138.585 211.97 137.655 211.7 136.395 211.49C135.165 211.28 133.665 211.19 131.925 211.19H120.645V214.79L131.265 214.76C132.435 214.76 133.365 214.85 133.995 215C134.625 215.12 135.015 215.27 135.135 215.42C135.255 215.6 135.315 215.78 135.315 216.05C135.315 216.5 134.985 216.77 134.355 216.86L127.185 217.52C124.845 217.73 123.165 218.21 122.145 218.93C121.125 219.68 120.645 220.76 120.645 222.17V222.38C120.645 223.85 121.215 225.05 122.415 226.01C123.615 226.97 125.445 227.45 127.905 227.45H128.265C130.275 227.45 131.865 227.21 133.035 226.7C134.205 226.19 135.015 225.62 135.495 225.05C135.735 226.46 136.545 227.18 137.985 227.18H143.235V222.95H142.395ZM135.315 220.25C135.315 221.24 134.805 222.08 133.725 222.83C132.675 223.58 131.295 223.97 129.645 223.97C128.625 223.97 127.905 223.79 127.455 223.46C127.005 223.1 126.795 222.68 126.795 222.2V222.17C126.795 221.75 126.975 221.45 127.305 221.24C127.665 221.03 128.265 220.85 129.135 220.73L135.315 219.77V220.25ZM154.176 226.85H160.086V222.71H158.226C157.656 222.71 157.296 222.59 157.116 222.38C156.936 222.17 156.846 221.84 156.846 221.39V215.9H160.086V211.73H156.846V207.32H150.096V211.73H146.886V215.9H150.096V222.56C150.096 225.44 151.446 226.85 154.176 226.85ZM189.336 221.42V221.39H182.586C182.586 221.51 182.526 221.63 182.436 221.75C182.376 221.87 182.196 222.02 181.986 222.23C181.746 222.41 181.446 222.59 181.056 222.74C180.696 222.92 180.186 223.04 179.526 223.16C178.866 223.28 178.086 223.34 177.246 223.34H177.216C173.766 223.34 171.816 222.35 171.366 220.37H189.426V219.35C189.426 213.89 185.616 211.19 177.966 211.19H176.106C173.946 211.19 172.116 211.4 170.556 211.82C169.026 212.24 167.826 212.81 167.016 213.56C166.176 214.31 165.576 215.09 165.216 215.96C164.856 216.83 164.676 217.76 164.676 218.81V219.41C164.676 220.46 164.856 221.45 165.246 222.32C165.666 223.19 166.296 224 167.136 224.75C168.006 225.5 169.206 226.1 170.766 226.52C172.326 226.94 174.156 227.15 176.286 227.15H178.026C179.916 227.15 181.566 227.03 182.976 226.76C184.416 226.49 185.496 226.13 186.276 225.74C187.056 225.32 187.686 224.87 188.196 224.3C188.676 223.76 188.976 223.28 189.126 222.8C189.276 222.35 189.336 221.9 189.336 221.42ZM177.006 214.7C180.216 214.7 182.046 215.54 182.526 217.25H171.486C172.056 215.54 173.886 214.7 176.976 214.7H177.006Z" fill="black"/>
</svg>
